<svg width="138" height="57" viewBox="0 0 138 57" fill="none" xmlns="http://www.w3.org/2000/svg">
<path d="M88.4522 32.1717C88.4522 33.3712 88.1372 34.4313 87.5073 35.3519C86.8866 36.2725 85.9926 36.9932 84.8254 37.5139C83.6581 38.0347 82.2546 38.2951 80.6149 38.2951C78.7992 38.2951 77.2753 38.03 76.0432 37.5C74.8204 36.9607 73.806 36.2958 73 35.5054L75.3067 32.9388C76.02 33.5619 76.8075 34.0454 77.669 34.3895C78.5305 34.7243 79.4755 34.8916 80.5038 34.8916C81.4579 34.8916 82.2315 34.6871 82.8244 34.2779C83.4173 33.8594 83.7137 33.2736 83.7137 32.5204C83.7137 31.8137 83.4636 31.2604 82.9633 30.8605C82.4723 30.4607 81.5552 30.0562 80.2119 29.647C77.9608 28.9589 76.3582 28.1499 75.404 27.22C74.4591 26.2808 73.9866 25.0765 73.9866 23.6073C73.9866 22.4263 74.3108 21.4174 74.9593 20.5805C75.6171 19.7436 76.4971 19.1066 77.5995 18.6695C78.7019 18.2232 79.9155 18 81.2402 18C82.7317 18 84.0472 18.2185 85.1867 18.6556C86.3261 19.0833 87.3127 19.6971 88.1465 20.4968L85.9926 22.9796C85.3441 22.431 84.6447 22.0265 83.8943 21.7661C83.144 21.4964 82.3797 21.3616 81.6015 21.3616C80.7307 21.3616 80.0313 21.5243 79.5033 21.8498C78.9752 22.166 78.7112 22.6356 78.7112 23.2586C78.7112 23.6677 78.827 24.0118 79.0586 24.2908C79.2902 24.5697 79.6932 24.8348 80.2675 25.0858C80.8419 25.3276 81.6386 25.6112 82.6576 25.9367C83.8712 26.3087 84.9087 26.755 85.7703 27.2758C86.6411 27.7872 87.3035 28.4335 87.7574 29.2146C88.2206 29.9957 88.4522 30.9814 88.4522 32.1717Z" fill="white"/>
<path d="M103.699 33.5526C103.699 34.1105 103.773 34.515 103.921 34.7661C104.079 35.0172 104.329 35.2078 104.672 35.338L103.768 38.2393C102.898 38.1556 102.161 37.965 101.559 37.6674C100.966 37.3605 100.498 36.9002 100.156 36.2865C99.5904 36.9653 98.8678 37.4721 97.9878 37.8069C97.1077 38.1323 96.2091 38.2951 95.292 38.2951C93.7727 38.2951 92.5591 37.8627 91.6513 36.9979C90.7527 36.1237 90.3034 35.0032 90.3034 33.6363C90.3034 32.0275 90.9287 30.7861 92.1793 29.912C93.4392 29.0379 95.2086 28.6009 97.4875 28.6009H99.4746V28.0429C99.4746 26.5272 98.5019 25.7693 96.5565 25.7693C96.084 25.7693 95.4773 25.8391 94.7361 25.9785C93.995 26.1087 93.2539 26.2994 92.5128 26.5504L91.4984 23.6212C92.4526 23.2586 93.4438 22.9843 94.4721 22.7983C95.5097 22.6123 96.4361 22.5193 97.2513 22.5193C99.4468 22.5193 101.068 22.9703 102.115 23.8723C103.171 24.765 103.699 26.0576 103.699 27.75V33.5526ZM96.8066 35.1427C97.2791 35.1427 97.7747 35.0032 98.2935 34.7243C98.8123 34.436 99.206 34.0315 99.4746 33.5107V31.1116H98.3908C97.1679 31.1116 96.2693 31.3022 95.695 31.6835C95.1206 32.0554 94.8334 32.6041 94.8334 33.3294C94.8334 33.8966 95.0048 34.343 95.3476 34.6685C95.6996 34.9846 96.1859 35.1427 96.8066 35.1427Z" fill="white"/>
<path d="M121.044 20.6363L122.072 23.8723C121.554 24.0769 120.947 24.2257 120.252 24.3187C119.557 24.4117 118.747 24.4582 117.82 24.4582C118.747 24.858 119.451 25.3555 119.932 25.9506C120.423 26.5365 120.669 27.3083 120.669 28.2661C120.669 29.2239 120.414 30.0794 119.905 30.8326C119.395 31.5765 118.672 32.1624 117.737 32.5901C116.801 33.0179 115.694 33.2318 114.416 33.2318C113.804 33.2318 113.235 33.176 112.707 33.0644C112.382 33.2318 112.22 33.5154 112.22 33.9152C112.22 34.1477 112.313 34.3569 112.498 34.5429C112.693 34.7289 113.142 34.8219 113.846 34.8219H116.264C117.978 34.8219 119.344 35.2264 120.363 36.0354C121.382 36.8444 121.892 37.8673 121.892 39.1041C121.892 40.6198 121.229 41.8147 119.905 42.6888C118.58 43.5629 116.611 44 113.999 44C112.109 44 110.645 43.8047 109.608 43.4142C108.579 43.0329 107.861 42.4843 107.454 41.7682C107.056 41.0615 106.856 40.22 106.856 39.2436H110.747C110.747 39.6713 110.831 40.02 110.997 40.2897C111.173 40.5687 111.502 40.7732 111.984 40.9034C112.475 41.0336 113.184 41.0987 114.11 41.0987C115.046 41.0987 115.759 41.0243 116.25 40.8755C116.741 40.7268 117.074 40.5222 117.25 40.2618C117.436 40.0107 117.528 39.7271 117.528 39.4109C117.528 38.9739 117.357 38.6205 117.014 38.3509C116.671 38.0812 116.13 37.9464 115.388 37.9464H113.04C111.447 37.9464 110.289 37.6534 109.566 37.0676C108.843 36.4725 108.482 35.7797 108.482 34.9893C108.482 34.4406 108.626 33.9199 108.913 33.427C109.209 32.9342 109.622 32.5204 110.15 32.1856C109.205 31.6835 108.528 31.093 108.121 30.4142C107.713 29.726 107.509 28.9031 107.509 27.9453C107.509 26.8294 107.792 25.8716 108.357 25.0719C108.922 24.2629 109.7 23.6398 110.692 23.2028C111.692 22.7657 112.832 22.5472 114.11 22.5472C115.212 22.5658 116.171 22.4914 116.986 22.324C117.802 22.1474 118.534 21.9102 119.182 21.6127C119.83 21.3058 120.451 20.9803 121.044 20.6363ZM114.221 25.4067C113.526 25.4067 112.975 25.6298 112.568 26.0762C112.16 26.5132 111.956 27.1177 111.956 27.8895C111.956 28.7078 112.165 29.3355 112.581 29.7725C112.998 30.2096 113.545 30.4281 114.221 30.4281C115.722 30.4281 116.472 29.5633 116.472 27.8337C116.472 26.2157 115.722 25.4067 114.221 25.4067Z" fill="white"/>
<path d="M137.027 33.5526C137.027 34.1105 137.101 34.515 137.25 34.7661C137.407 35.0172 137.657 35.2078 138 35.338L137.097 38.2393C136.226 38.1556 135.489 37.965 134.887 37.6674C134.294 37.3605 133.827 36.9002 133.484 36.2865C132.919 36.9653 132.196 37.4721 131.316 37.8069C130.436 38.1323 129.537 38.2951 128.62 38.2951C127.101 38.2951 125.887 37.8627 124.98 36.9979C124.081 36.1237 123.632 35.0032 123.632 33.6363C123.632 32.0275 124.257 30.7861 125.508 29.912C126.768 29.0379 128.537 28.6009 130.816 28.6009H132.803V28.0429C132.803 26.5272 131.83 25.7693 129.885 25.7693C129.412 25.7693 128.806 25.8391 128.064 25.9785C127.323 26.1087 126.582 26.2994 125.841 26.5504L124.827 23.6212C125.781 23.2586 126.772 22.9843 127.8 22.7983C128.838 22.6123 129.764 22.5193 130.58 22.5193C132.775 22.5193 134.396 22.9703 135.443 23.8723C136.499 24.765 137.027 26.0576 137.027 27.75V33.5526ZM130.135 35.1427C130.607 35.1427 131.103 35.0032 131.622 34.7243C132.141 34.436 132.534 34.0315 132.803 33.5107V31.1116H131.719C130.496 31.1116 129.598 31.3022 129.023 31.6835C128.449 32.0554 128.162 32.6041 128.162 33.3294C128.162 33.8966 128.333 34.343 128.676 34.6685C129.028 34.9846 129.514 35.1427 130.135 35.1427Z" fill="white"/>
<g clip-path="url(#clip0_165_28)">
<path d="M57 28.5C57 44.2403 44.2403 57 28.5 57C12.7597 57 0 44.2403 0 28.5C0 12.7597 12.7597 0 28.5 0C44.2403 0 57 12.7597 57 28.5Z" fill="white"/>
<path d="M28.5 11.3555C21.2445 11.3555 15.3633 17.2367 15.3633 24.4922V40.8574L23.7686 50.376V33.4354H19.6307V29.9473H26.9845V39.2988L28.5 41.5254L30.0151 39.2988L30.0142 29.9473H37.368V33.4354H33.2314V50.376L41.6367 40.8574V24.4922C41.6367 17.2367 35.7555 11.3555 28.5 11.3555Z" fill="#424242"/>
<path d="M28.5001 41.5254L30.0152 39.2988L30.0143 29.9473H37.3681V33.4354H33.2315V50.376L41.6368 40.8574V24.4922C41.6368 17.2367 35.7555 11.3555 28.5001 11.3555C28.4931 11.3555 28.4857 11.3559 28.4788 11.3559L28.5001 41.5254Z" fill="#1D1D1D"/>
<path d="M24.1587 6.67969H32.8414V23.308H24.1587V6.67969Z" fill="#7A7A7A"/>
<path d="M28.4788 6.67969H32.8414V23.308H28.4788V6.67969Z" fill="#545454"/>
</g>
<defs>
<clipPath id="clip0_165_28">
<rect width="57" height="57" fill="white"/>
</clipPath>
</defs>
</svg>
