<svg width="188" height="232" viewBox="0 0 188 232" fill="none" xmlns="http://www.w3.org/2000/svg">
<rect width="188" height="232" fill="none"/>
<path d="M63.264 168.28C63.264 170.344 62.72 172.168 61.632 173.752C60.56 175.336 59.016 176.576 57 177.472C54.984 178.368 52.56 178.816 49.728 178.816C46.592 178.816 43.96 178.36 41.832 177.448C39.72 176.52 37.968 175.376 36.576 174.016L40.56 169.6C41.792 170.672 43.152 171.504 44.64 172.096C46.128 172.672 47.76 172.96 49.536 172.96C51.184 172.96 52.52 172.608 53.544 171.904C54.568 171.184 55.08 170.176 55.08 168.88C55.08 167.664 54.648 166.712 53.784 166.024C52.936 165.336 51.352 164.64 49.032 163.936C45.144 162.752 42.376 161.36 40.728 159.76C39.096 158.144 38.28 156.072 38.28 153.544C38.28 151.512 38.84 149.776 39.96 148.336C41.096 146.896 42.616 145.8 44.52 145.048C46.424 144.28 48.52 143.896 50.808 143.896C53.384 143.896 55.656 144.272 57.624 145.024C59.592 145.76 61.296 146.816 62.736 148.192L59.016 152.464C57.896 151.52 56.688 150.824 55.392 150.376C54.096 149.912 52.776 149.68 51.432 149.68C49.928 149.68 48.72 149.96 47.808 150.52C46.896 151.064 46.44 151.872 46.44 152.944C46.44 153.648 46.64 154.24 47.04 154.72C47.44 155.2 48.136 155.656 49.128 156.088C50.12 156.504 51.496 156.992 53.256 157.552C55.352 158.192 57.144 158.96 58.632 159.856C60.136 160.736 61.28 161.848 62.064 163.192C62.864 164.536 63.264 166.232 63.264 168.28ZM89.5973 170.656C89.5973 171.616 89.7253 172.312 89.9813 172.744C90.2533 173.176 90.6853 173.504 91.2773 173.728L89.7173 178.72C88.2133 178.576 86.9413 178.248 85.9013 177.736C84.8773 177.208 84.0693 176.416 83.4773 175.36C82.5013 176.528 81.2533 177.4 79.7333 177.976C78.2133 178.536 76.6613 178.816 75.0773 178.816C72.4533 178.816 70.3573 178.072 68.7893 176.584C67.2373 175.08 66.4613 173.152 66.4613 170.8C66.4613 168.032 67.5413 165.896 69.7013 164.392C71.8773 162.888 74.9333 162.136 78.8693 162.136H82.3013V161.176C82.3013 158.568 80.6213 157.264 77.2613 157.264C76.4453 157.264 75.3973 157.384 74.1173 157.624C72.8373 157.848 71.5573 158.176 70.2773 158.608L68.5253 153.568C70.1733 152.944 71.8853 152.472 73.6613 152.152C75.4533 151.832 77.0533 151.672 78.4613 151.672C82.2533 151.672 85.0533 152.448 86.8613 154C88.6853 155.536 89.5973 157.76 89.5973 160.672V170.656ZM77.6933 173.392C78.5093 173.392 79.3653 173.152 80.2613 172.672C81.1573 172.176 81.8373 171.48 82.3013 170.584V166.456H80.4293C78.3173 166.456 76.7653 166.784 75.7733 167.44C74.7813 168.08 74.2853 169.024 74.2853 170.272C74.2853 171.248 74.5813 172.016 75.1733 172.576C75.7813 173.12 76.6213 173.392 77.6933 173.392ZM119.555 148.432L121.331 154C120.435 154.352 119.387 154.608 118.187 154.768C116.987 154.928 115.587 155.008 113.987 155.008C115.587 155.696 116.803 156.552 117.635 157.576C118.483 158.584 118.906 159.912 118.906 161.56C118.906 163.208 118.467 164.68 117.587 165.976C116.707 167.256 115.459 168.264 113.843 169C112.227 169.736 110.315 170.104 108.107 170.104C107.051 170.104 106.067 170.008 105.155 169.816C104.595 170.104 104.315 170.592 104.315 171.28C104.315 171.68 104.475 172.04 104.795 172.36C105.131 172.68 105.907 172.84 107.122 172.84H111.299C114.259 172.84 116.619 173.536 118.379 174.928C120.139 176.32 121.019 178.08 121.019 180.208C121.019 182.816 119.875 184.872 117.587 186.376C115.299 187.88 111.899 188.632 107.387 188.632C104.123 188.632 101.595 188.296 99.8025 187.624C98.0265 186.968 96.7865 186.024 96.0825 184.792C95.3945 183.576 95.0505 182.128 95.0505 180.448H101.771C101.771 181.184 101.915 181.784 102.203 182.248C102.507 182.728 103.075 183.08 103.907 183.304C104.755 183.528 105.979 183.64 107.579 183.64C109.195 183.64 110.427 183.512 111.275 183.256C112.123 183 112.699 182.648 113.003 182.2C113.323 181.768 113.483 181.28 113.483 180.736C113.483 179.984 113.187 179.376 112.595 178.912C112.003 178.448 111.067 178.216 109.787 178.216H105.731C102.979 178.216 100.979 177.712 99.7305 176.704C98.4825 175.68 97.8585 174.488 97.8585 173.128C97.8585 172.184 98.1065 171.288 98.6025 170.44C99.1145 169.592 99.8265 168.88 100.739 168.304C99.1065 167.44 97.9385 166.424 97.2345 165.256C96.5305 164.072 96.1785 162.656 96.1785 161.008C96.1785 159.088 96.6665 157.44 97.6425 156.064C98.6185 154.672 99.9625 153.6 101.675 152.848C103.403 152.096 105.371 151.72 107.579 151.72C109.483 151.752 111.139 151.624 112.547 151.336C113.955 151.032 115.219 150.624 116.339 150.112C117.459 149.584 118.531 149.024 119.555 148.432ZM107.771 156.64C106.571 156.64 105.619 157.024 104.915 157.792C104.211 158.544 103.859 159.584 103.859 160.912C103.859 162.32 104.219 163.4 104.939 164.152C105.659 164.904 106.603 165.28 107.771 165.28C110.363 165.28 111.659 163.792 111.659 160.816C111.659 158.032 110.363 156.64 107.771 156.64ZM147.16 170.656C147.16 171.616 147.288 172.312 147.544 172.744C147.816 173.176 148.248 173.504 148.84 173.728L147.28 178.72C145.776 178.576 144.504 178.248 143.464 177.736C142.44 177.208 141.632 176.416 141.04 175.36C140.064 176.528 138.816 177.4 137.296 177.976C135.776 178.536 134.224 178.816 132.64 178.816C130.016 178.816 127.92 178.072 126.352 176.584C124.8 175.08 124.024 173.152 124.024 170.8C124.024 168.032 125.104 165.896 127.264 164.392C129.44 162.888 132.496 162.136 136.432 162.136H139.864V161.176C139.864 158.568 138.184 157.264 134.824 157.264C134.008 157.264 132.96 157.384 131.68 157.624C130.4 157.848 129.12 158.176 127.84 158.608L126.088 153.568C127.736 152.944 129.448 152.472 131.224 152.152C133.016 151.832 134.616 151.672 136.024 151.672C139.816 151.672 142.616 152.448 144.424 154C146.248 155.536 147.16 157.76 147.16 160.672V170.656ZM135.256 173.392C136.072 173.392 136.928 173.152 137.824 172.672C138.72 172.176 139.4 171.48 139.864 170.584V166.456H137.992C135.88 166.456 134.328 166.784 133.336 167.44C132.344 168.08 131.848 169.024 131.848 170.272C131.848 171.248 132.144 172.016 132.736 172.576C133.344 173.12 134.184 173.392 135.256 173.392Z" fill="#222222"/>
<path d="M143 88C143 115.062 121.062 137 94 137C66.9377 137 45 115.062 45 88C45 60.9377 66.9377 39 94 39C121.062 39 143 60.9377 143 88Z" fill="#1D1D1D"/>
<path d="M94 58.5234C81.5257 58.5234 71.4141 68.6351 71.4141 81.1094V109.246L85.8652 125.611V96.4854H78.7511V90.4883H91.3943V106.566L94 110.395L96.6049 106.566L96.6034 90.4883H109.247V96.4854H102.135V125.611L116.586 109.246V81.1094C116.586 68.6351 106.474 58.5234 94 58.5234Z" fill="white"/>
<path d="M94 110.395L96.6049 106.566L96.6034 90.4883H109.247V96.4854H102.135V125.611L116.586 109.246V81.1094C116.586 68.6351 106.474 58.5234 94 58.5234C93.988 58.5234 93.9753 58.5242 93.9634 58.5242L94 110.395Z" fill="#B9B9B9"/>
<path d="M86.5359 50.4844H101.464V79.0734H86.5359V50.4844Z" fill="#B9B9B9"/>
<path d="M93.9634 50.4844H101.464V79.0734H93.9634V50.4844Z" fill="#8F8F8F"/>
</svg>
